<?xml version="1.0" encoding="UTF-8"?>
<!DOCTYPE svg PUBLIC "-//W3C//DTD SVG 1.1//EN" "http://www.w3.org/Graphics/SVG/1.1/DTD/svg11.dtd">
<svg xmlns="http://www.w3.org/2000/svg" version="1.1" width="932px" height="376px" style="shape-rendering:geometricPrecision; text-rendering:geometricPrecision; image-rendering:optimizeQuality; fill-rule:evenodd; clip-rule:evenodd" xmlns:xlink="http://www.w3.org/1999/xlink">
<g><path style="opacity:1" fill="#fefffe" d="M -0.5,-0.5 C 310.167,-0.5 620.833,-0.5 931.5,-0.5C 931.5,124.833 931.5,250.167 931.5,375.5C 620.833,375.5 310.167,375.5 -0.5,375.5C -0.5,250.167 -0.5,124.833 -0.5,-0.5 Z"/></g>
<g><path style="opacity:1" fill="#00a1e8" d="M 597.5,22.5 C 613.837,22.3334 630.17,22.5001 646.5,23C 651.872,22.9317 655.372,25.4317 657,30.5C 655.217,59.8841 652.551,89.2174 649,118.5C 649.084,124.281 646.584,128.447 641.5,131C 628.5,131.667 615.5,131.667 602.5,131C 599.667,129.5 597.5,127.333 596,124.5C 592.405,95.382 589.238,66.2153 586.5,37C 585.56,28.461 589.227,23.6276 597.5,22.5 Z"/></g>
<g><path style="opacity:1" fill="#00a1e8" d="M 123.5,23.5 C 167.191,18.8264 205.524,30.6597 238.5,59C 252.56,72.6182 261.227,89.1182 264.5,108.5C 263.948,111.779 262.281,114.279 259.5,116C 238.5,116.667 217.5,116.667 196.5,116C 188.13,107.962 179.464,100.295 170.5,93C 165.162,90.2484 159.495,88.5817 153.5,88C 115.458,82.9236 94.6248,99.4236 91,137.5C 90.3333,156.833 90.3333,176.167 91,195.5C 94.0439,234.861 115.211,251.694 154.5,246C 179.093,241.908 191.76,227.408 192.5,202.5C 179.829,202.667 167.162,202.5 154.5,202C 152.376,200.878 150.543,199.378 149,197.5C 147.893,188.725 147.393,179.891 147.5,171C 147.667,163.5 147.833,156 148,148.5C 149.285,142.882 152.785,139.715 158.5,139C 190.833,138.333 223.167,138.333 255.5,139C 261.215,139.715 264.715,142.882 266,148.5C 266.833,171.853 266.5,195.186 265,218.5C 256.191,261.316 231.025,289.816 189.5,304C 161.741,311.45 133.741,312.45 105.5,307C 54.7587,293.262 25.592,260.429 18,208.5C 15.8413,177.804 16.1746,147.137 19,116.5C 27.2024,75.6262 50.7024,47.4595 89.5,32C 100.673,27.9818 112.006,25.1484 123.5,23.5 Z"/></g>
<g><path style="opacity:1" fill="#00a1e8" d="M 407.5,23.5 C 431.342,21.5721 454.676,24.0721 477.5,31C 518.006,46.5155 542.172,75.6822 550,118.5C 552.841,147.803 553.174,177.137 551,206.5C 542.31,267.856 507.143,302.356 445.5,310C 415.464,313.329 386.798,308.663 359.5,296C 324.309,275.827 305.143,245.327 302,204.5C 301.333,179.5 301.333,154.5 302,129.5C 305.978,82.3568 329.811,49.8568 373.5,32C 384.726,28.1944 396.06,25.3611 407.5,23.5 Z"/></g>
<g><path style="opacity:1" fill="#fefffe" d="M 414.5,87.5 C 422.507,87.3336 430.507,87.5003 438.5,88C 458.85,92.0159 471.35,104.183 476,124.5C 479.333,152.833 479.333,181.167 476,209.5C 471.522,229.992 459.022,242.158 438.5,246C 422.754,248.745 408.088,246.078 394.5,238C 383.725,228.618 377.558,216.785 376,202.5C 374,178.833 374,155.167 376,131.5C 378.839,107.842 391.672,93.1751 414.5,87.5 Z"/></g>
<g><path style="opacity:1" fill="#00a1e8" d="M 780.5,95.5 C 804.155,93.2929 827.155,96.1262 849.5,104C 875.766,114.706 893.266,133.54 902,160.5C 904.932,167.27 903.765,173.103 898.5,178C 897.5,178.333 896.5,178.667 895.5,179C 875.833,179.667 856.167,179.667 836.5,179C 831.488,174.987 827.155,170.321 823.5,165C 812.908,157.872 801.242,155.538 788.5,158C 772.435,161.398 763.268,171.232 761,187.5C 760.13,199.876 760.464,212.209 762,224.5C 768.102,241.258 780.102,249.258 798,248.5C 807.443,249.017 815.943,246.517 823.5,241C 826.833,237 830.167,233 833.5,229C 835.392,228.027 837.392,227.36 839.5,227C 857.833,226.333 876.167,226.333 894.5,227C 900.679,228.346 903.679,232.179 903.5,238.5C 898.408,264.189 884.408,283.356 861.5,296C 847.451,303.683 832.451,308.349 816.5,310C 785.823,314.001 757.156,308.334 730.5,293C 704.942,276.06 691.109,252.227 689,221.5C 680.621,150.773 711.121,108.773 780.5,95.5 Z"/></g>
</svg>
