<?xml version="1.0" encoding="UTF-8"?>
<!DOCTYPE svg PUBLIC "-//W3C//DTD SVG 1.1//EN" "http://www.w3.org/Graphics/SVG/1.1/DTD/svg11.dtd">
<svg xmlns="http://www.w3.org/2000/svg" version="1.1" width="944px" height="424px" style="shape-rendering:geometricPrecision; text-rendering:geometricPrecision; image-rendering:optimizeQuality; fill-rule:evenodd; clip-rule:evenodd" xmlns:xlink="http://www.w3.org/1999/xlink">
<g><path style="opacity:1" fill="#fefffe" d="M -0.5,-0.5 C 314.167,-0.5 628.833,-0.5 943.5,-0.5C 943.5,140.833 943.5,282.167 943.5,423.5C 628.833,423.5 314.167,423.5 -0.5,423.5C -0.5,282.167 -0.5,140.833 -0.5,-0.5 Z"/></g>
<g><path style="opacity:1" fill="#00a1e8" d="M 597.5,86.5 C 613.837,86.3334 630.17,86.5001 646.5,87C 651.872,86.9317 655.372,89.4317 657,94.5C 655.217,123.884 652.551,153.217 649,182.5C 649.084,188.281 646.584,192.447 641.5,195C 628.5,195.667 615.5,195.667 602.5,195C 599.667,193.5 597.5,191.333 596,188.5C 592.405,159.382 589.238,130.215 586.5,101C 585.56,92.461 589.227,87.6276 597.5,86.5 Z"/></g>
<g><path style="opacity:1" fill="#00a1e8" d="M 123.5,87.5 C 167.191,82.8264 205.524,94.6597 238.5,123C 252.56,136.618 261.227,153.118 264.5,172.5C 263.948,175.779 262.281,178.279 259.5,180C 238.5,180.667 217.5,180.667 196.5,180C 188.13,171.962 179.464,164.295 170.5,157C 165.162,154.248 159.495,152.582 153.5,152C 115.458,146.924 94.6248,163.424 91,201.5C 90.3333,220.833 90.3333,240.167 91,259.5C 94.0439,298.861 115.211,315.694 154.5,310C 179.093,305.908 191.76,291.408 192.5,266.5C 179.829,266.667 167.162,266.5 154.5,266C 152.376,264.878 150.543,263.378 149,261.5C 147.893,252.725 147.393,243.891 147.5,235C 147.667,227.5 147.833,220 148,212.5C 149.285,206.882 152.785,203.715 158.5,203C 190.833,202.333 223.167,202.333 255.5,203C 261.215,203.715 264.715,206.882 266,212.5C 266.833,235.853 266.5,259.186 265,282.5C 256.191,325.316 231.025,353.816 189.5,368C 161.741,375.45 133.741,376.45 105.5,371C 54.7587,357.262 25.592,324.429 18,272.5C 15.8413,241.804 16.1746,211.137 19,180.5C 27.2024,139.626 50.7024,111.46 89.5,96C 100.673,91.9818 112.006,89.1484 123.5,87.5 Z"/></g>
<g><path style="opacity:1" fill="#00a1e8" d="M 407.5,87.5 C 431.342,85.5721 454.676,88.0721 477.5,95C 518.006,110.516 542.172,139.682 550,182.5C 552.841,211.803 553.174,241.137 551,270.5C 542.31,331.856 507.143,366.356 445.5,374C 415.464,377.329 386.798,372.663 359.5,360C 324.309,339.827 305.143,309.327 302,268.5C 301.333,243.5 301.333,218.5 302,193.5C 305.978,146.357 329.811,113.857 373.5,96C 384.726,92.1944 396.06,89.3611 407.5,87.5 Z"/></g>
<g><path style="opacity:1" fill="#fefffe" d="M 414.5,151.5 C 422.507,151.334 430.507,151.5 438.5,152C 458.85,156.016 471.35,168.183 476,188.5C 479.333,216.833 479.333,245.167 476,273.5C 471.522,293.992 459.022,306.158 438.5,310C 422.754,312.745 408.088,310.078 394.5,302C 383.725,292.618 377.558,280.785 376,266.5C 374,242.833 374,219.167 376,195.5C 378.839,171.842 391.672,157.175 414.5,151.5 Z"/></g>
<g><path style="opacity:1" fill="#00a1e8" d="M 780.5,159.5 C 804.155,157.293 827.155,160.126 849.5,168C 875.766,178.706 893.266,197.54 902,224.5C 904.932,231.27 903.765,237.103 898.5,242C 897.5,242.333 896.5,242.667 895.5,243C 875.833,243.667 856.167,243.667 836.5,243C 831.488,238.987 827.155,234.321 823.5,229C 812.908,221.872 801.242,219.538 788.5,222C 772.435,225.398 763.268,235.232 761,251.5C 760.13,263.876 760.464,276.209 762,288.5C 768.102,305.258 780.102,313.258 798,312.5C 807.443,313.017 815.943,310.517 823.5,305C 826.833,301 830.167,297 833.5,293C 835.392,292.027 837.392,291.36 839.5,291C 857.833,290.333 876.167,290.333 894.5,291C 900.679,292.346 903.679,296.179 903.5,302.5C 898.408,328.189 884.408,347.356 861.5,360C 847.451,367.683 832.451,372.349 816.5,374C 785.823,378.001 757.156,372.334 730.5,357C 704.942,340.06 691.109,316.227 689,285.5C 680.621,214.773 711.121,172.773 780.5,159.5 Z"/></g>
</svg>
