<?xml version="1.0" encoding="UTF-8"?>
<!DOCTYPE svg PUBLIC "-//W3C//DTD SVG 1.1//EN" "http://www.w3.org/Graphics/SVG/1.1/DTD/svg11.dtd">
<svg xmlns="http://www.w3.org/2000/svg" version="1.1" width="5268px" height="848px" style="shape-rendering:geometricPrecision; text-rendering:geometricPrecision; image-rendering:optimizeQuality; fill-rule:evenodd; clip-rule:evenodd" xmlns:xlink="http://www.w3.org/1999/xlink">
<g><path style="opacity:1" fill="#fefffe" d="M -0.5,-0.5 C 1755.5,-0.5 3511.5,-0.5 5267.5,-0.5C 5267.5,282.167 5267.5,564.833 5267.5,847.5C 3511.5,847.5 1755.5,847.5 -0.5,847.5C -0.5,564.833 -0.5,282.167 -0.5,-0.5 Z"/></g>
<g><path style="opacity:1" fill="#00a1e8" d="M 2637.5,214.5 C 2653.84,214.333 2670.17,214.5 2686.5,215C 2691.87,214.932 2695.37,217.432 2697,222.5C 2695.22,251.884 2692.55,281.217 2689,310.5C 2689.08,316.281 2686.58,320.447 2681.5,323C 2668.5,323.667 2655.5,323.667 2642.5,323C 2639.67,321.5 2637.5,319.333 2636,316.5C 2632.4,287.382 2629.24,258.215 2626.5,229C 2625.56,220.461 2629.23,215.628 2637.5,214.5 Z"/></g>
<g><path style="opacity:1" fill="#00a1e8" d="M 2163.5,215.5 C 2207.19,210.826 2245.52,222.66 2278.5,251C 2292.56,264.618 2301.23,281.118 2304.5,300.5C 2303.95,303.779 2302.28,306.279 2299.5,308C 2278.5,308.667 2257.5,308.667 2236.5,308C 2228.13,299.962 2219.46,292.295 2210.5,285C 2205.16,282.248 2199.5,280.582 2193.5,280C 2155.46,274.924 2134.62,291.424 2131,329.5C 2130.33,348.833 2130.33,368.167 2131,387.5C 2134.04,426.861 2155.21,443.694 2194.5,438C 2219.09,433.908 2231.76,419.408 2232.5,394.5C 2219.83,394.667 2207.16,394.5 2194.5,394C 2192.38,392.878 2190.54,391.378 2189,389.5C 2187.89,380.725 2187.39,371.891 2187.5,363C 2187.67,355.5 2187.83,348 2188,340.5C 2189.28,334.882 2192.78,331.715 2198.5,331C 2230.83,330.333 2263.17,330.333 2295.5,331C 2301.22,331.715 2304.72,334.882 2306,340.5C 2306.83,363.853 2306.5,387.186 2305,410.5C 2296.19,453.316 2271.02,481.816 2229.5,496C 2201.74,503.45 2173.74,504.45 2145.5,499C 2094.76,485.262 2065.59,452.429 2058,400.5C 2055.84,369.804 2056.17,339.137 2059,308.5C 2067.2,267.626 2090.7,239.46 2129.5,224C 2140.67,219.982 2152.01,217.148 2163.5,215.5 Z"/></g>
<g><path style="opacity:1" fill="#00a1e8" d="M 2447.5,215.5 C 2471.34,213.572 2494.68,216.072 2517.5,223C 2558.01,238.516 2582.17,267.682 2590,310.5C 2592.84,339.803 2593.17,369.137 2591,398.5C 2582.31,459.856 2547.14,494.356 2485.5,502C 2455.46,505.329 2426.8,500.663 2399.5,488C 2364.31,467.827 2345.14,437.327 2342,396.5C 2341.33,371.5 2341.33,346.5 2342,321.5C 2345.98,274.357 2369.81,241.857 2413.5,224C 2424.73,220.194 2436.06,217.361 2447.5,215.5 Z"/></g>
<g><path style="opacity:1" fill="#fefffe" d="M 2454.5,279.5 C 2462.51,279.334 2470.51,279.5 2478.5,280C 2498.85,284.016 2511.35,296.183 2516,316.5C 2519.33,344.833 2519.33,373.167 2516,401.5C 2511.52,421.992 2499.02,434.158 2478.5,438C 2462.75,440.745 2448.09,438.078 2434.5,430C 2423.72,420.618 2417.56,408.785 2416,394.5C 2414,370.833 2414,347.167 2416,323.5C 2418.84,299.842 2431.67,285.175 2454.5,279.5 Z"/></g>
<g><path style="opacity:1" fill="#00a1e8" d="M 2820.5,287.5 C 2844.15,285.293 2867.15,288.126 2889.5,296C 2915.77,306.706 2933.27,325.54 2942,352.5C 2944.93,359.27 2943.76,365.103 2938.5,370C 2937.5,370.333 2936.5,370.667 2935.5,371C 2915.83,371.667 2896.17,371.667 2876.5,371C 2871.49,366.987 2867.15,362.321 2863.5,357C 2852.91,349.872 2841.24,347.538 2828.5,350C 2812.43,353.398 2803.27,363.232 2801,379.5C 2800.13,391.876 2800.46,404.209 2802,416.5C 2808.1,433.258 2820.1,441.258 2838,440.5C 2847.44,441.017 2855.94,438.517 2863.5,433C 2866.83,429 2870.17,425 2873.5,421C 2875.39,420.027 2877.39,419.36 2879.5,419C 2897.83,418.333 2916.17,418.333 2934.5,419C 2940.68,420.346 2943.68,424.179 2943.5,430.5C 2938.41,456.189 2924.41,475.356 2901.5,488C 2887.45,495.683 2872.45,500.349 2856.5,502C 2825.82,506.001 2797.16,500.334 2770.5,485C 2744.94,468.06 2731.11,444.227 2729,413.5C 2720.62,342.773 2751.12,300.773 2820.5,287.5 Z"/></g>
</svg>
